<svg width="796" height="622" viewBox="0 0 796 622" fill="none" xmlns="http://www.w3.org/2000/svg">
<mask id="mask0_1_23" style="mask-type:luminance" maskUnits="userSpaceOnUse" x="0" y="0" width="806" height="622">
<path d="M806 0H0V621.896H806V0Z" fill="white"/>
</mask>
<g mask="url(#mask0_1_23)">
<path d="M804.32 0.307098V108.768L520.06 215.744C449.58 242.275 373.8 197.915 350.803 116.6L318.202 1.27968H-0.16803L318.202 0.853087L804.32 0.307098Z" fill="#FDB153"/>
<path d="M804.32 108.768V424.237L374.23 586.067H190.031C178.417 572.421 169.909 556.339 165.112 538.969L-0.16803 1.27968H318.202L350.828 116.6C373.8 197.915 449.58 242.275 520.06 215.744L804.32 108.768Z" fill="#FDB153"/>
<path d="M804.32 108.768V424.237L374.23 586.067L295.861 615.584C257.332 630.086 216.755 617.145 190.073 586.093C178.459 572.447 169.951 556.365 165.154 538.994L-0.16803 1.27968H318.202L350.828 116.6C373.8 197.915 449.58 242.275 520.06 215.744L804.32 108.768Z" fill="#F8A43D"/>
<path d="M804.32 248.102V424.237L374.23 586.067L295.861 615.584C257.332 630.086 216.755 617.145 190.073 586.093C178.459 572.447 169.951 556.365 165.154 538.994L-0.16803 1.27968H156.893L240.675 297.375C263.671 378.649 339.452 423.043 409.93 396.521L804.32 248.102Z" fill="#F68C0B"/>
</g>
</svg>
